<svg width="1028" height="784" viewBox="0 0 1028 784" fill="none" xmlns="http://www.w3.org/2000/svg">
<g clip-path="url(#clip0)">
<path d="M292.94 637.25C292.94 637.25 313.94 633.89 326.54 648.74C326.54 648.74 317.3 656.02 297.42 645.94L292.94 637.25Z" fill="#C64C26"/>
<path d="M290.68 636.98C290.68 636.98 277.29 653.5 283.86 671.83C283.86 671.83 294.78 667.45 295.97 645.19L290.68 636.98Z" fill="#C64C26"/>
<path d="M278.68 609.81C278.68 609.81 287.08 594.41 320.68 615.97C320.68 615.97 316.2 626.33 301.36 625.49C286.52 624.65 282.58 617.98 278.68 609.81Z" fill="#C64C26"/>
<path d="M276.49 608.7C276.49 608.7 259.06 606.7 257.37 646.61C257.37 646.61 268.42 648.9 276.27 636.28C284.12 623.66 280.88 616.58 276.49 608.7Z" fill="#C64C26"/>
<path d="M266.34 576.88C266.34 576.88 276.14 549.72 311.7 569.04C311.7 569.04 303.58 593.96 269.98 586.12L266.34 576.88Z" fill="#C64C26"/>
<path d="M255.41 536.28C255.41 536.28 273.9 508.83 306.66 534.28C306.66 534.28 295.18 560.04 258.21 546.04L255.41 536.28Z" fill="#C64C26"/>
<path d="M251.49 497.63C251.49 497.63 273.06 472.43 305.54 497.63C305.54 497.63 285.1 519.75 251.49 504.07V497.63Z" fill="#C64C26"/>
<path d="M248.13 460.11C248.13 460.11 269.98 433.79 301.06 458.71C301.06 458.71 276.42 481.95 248.13 466.27V460.11Z" fill="#C64C26"/>
<path d="M250.09 426.79C250.09 426.79 273.09 392.9 302.18 415.87C302.18 415.87 277.54 444.99 250.09 433.23V426.79Z" fill="#C64C26"/>
<path d="M255.41 387.86C255.41 387.86 279.78 354.26 308.06 380.02C308.06 380.02 279.22 409.15 255.41 394.02V387.86Z" fill="#C64C26"/>
<path d="M263.54 353.07C263.54 353.07 292.38 321.5 317.54 334.07C317.54 334.07 287.48 367.6 262.28 361.44L263.54 353.07Z" fill="#C64C26"/>
<path d="M273.62 320.1C273.62 320.1 306.94 281.46 326.26 294.34C326.26 294.34 301.74 324.34 271.26 327.34L273.62 320.1Z" fill="#C64C26"/>
<path d="M288.17 281.85C288.17 281.85 317.3 250.27 338.58 258.11C338.58 258.11 313.66 290.87 284.26 291.71L288.17 281.85Z" fill="#C64C26"/>
<path d="M301.34 246.07C301.34 246.07 333.54 215.82 347.54 221.14C347.54 221.14 324.3 254.75 299.94 252.79L301.34 246.07Z" fill="#C64C26"/>
<path d="M314.22 212.98C314.22 212.98 341.94 176.86 357.06 179.66C357.06 179.66 340.26 211.86 314.22 216.66V212.98Z" fill="#C64C26"/>
<path d="M328.2 168.48C328.2 168.48 352.7 140.78 365.93 140.85C365.93 140.85 346.59 177.85 327.19 177.51L328.2 168.48Z" fill="#C64C26"/>
<path d="M336.48 138.82L360.14 81.13C360.14 81.13 361.33 133.28 333.47 149.52L336.48 138.82Z" fill="#C64C26"/>
<path d="M346.09 75.2C346.09 75.2 350.01 27.04 347.49 23.12C347.49 23.12 364.41 63.12 345.92 96.48L346.09 75.2Z" fill="#C64C26"/>
<path d="M265.42 576.23C265.42 576.23 240.88 561.02 224.99 598.23C224.99 598.23 246.83 612.72 268.3 585.72L265.42 576.23Z" fill="#C64C26"/>
<path d="M254.68 534.73C254.68 534.73 224.58 521 209.97 559.85C209.97 559.85 233.23 575.85 257.42 544.55L254.68 534.73Z" fill="#C64C26"/>
<path d="M250.09 499.98C250.09 499.98 228.53 474.78 196.09 499.98C196.09 499.98 216.53 522.1 250.09 506.42V499.98Z" fill="#C64C26"/>
<path d="M247.4 460.11C247.4 460.11 225.56 433.79 194.47 458.71C194.47 458.71 219.12 481.95 247.4 466.27V460.11Z" fill="#C64C26"/>
<path d="M250.09 427.75C250.09 427.75 234.77 389.75 201.47 406.12C201.47 406.12 219.47 439.77 248.74 434.04L250.09 427.75Z" fill="#C64C26"/>
<path d="M257.34 387.67C257.34 387.67 242.12 349.06 208.34 366.97C208.34 366.97 229.02 402.36 255.84 393.64L257.34 387.67Z" fill="#C64C26"/>
<path d="M266.78 353.27C266.78 353.27 260.78 310.94 232.78 307.15C232.78 307.15 238.71 351.79 263 360.9L266.78 353.27Z" fill="#C64C26"/>
<path d="M274.33 320.17C274.33 320.17 271.99 269.17 248.84 267.4C248.84 267.4 249.62 306.11 271.72 327.4L274.33 320.17Z" fill="#C64C26"/>
<path d="M290.57 280.39C290.57 280.39 283.66 237.98 261.57 232.79C261.57 232.79 264.31 273.87 288.39 290.79L290.57 280.39Z" fill="#C64C26"/>
<path d="M303.96 246.37C303.96 246.37 303.72 202.2 290.23 195.7C290.23 195.7 281.85 235.7 300.05 252.01L303.96 246.37Z" fill="#C64C26"/>
<path d="M315.25 212.53C315.25 212.53 313.36 167.04 299.38 160.63C299.38 160.63 294.59 196.63 313.15 215.51L315.25 212.53Z" fill="#C64C26"/>
<path d="M330.15 172.1C330.15 172.1 330.06 135.1 320.09 126.43C320.09 126.43 310.16 166.96 324.94 179.55L330.15 172.1Z" fill="#C64C26"/>
<path d="M335.3 136.98L325.6 75.39C325.6 75.39 312.41 125.85 335.77 148.08L335.3 136.98Z" fill="#C64C26"/>
<path d="M337.2 75.79C337.2 75.79 312.28 34.39 312.79 29.79C312.79 29.79 315.44 73.18 346.79 94.79L337.2 75.79Z" fill="#C64C26"/>
<path d="M340.12 63.56C340.12 63.56 316.6 4.76001 305.96 -0.019989C305.96 -0.019989 339.56 17.06 342.08 61.86L340.12 63.56Z" fill="#C64C26"/>
<path d="M327.06 177.86L325.46 177.36C345.31 112.64 350.26 71.36 339.4 61.02L340.56 59.8C352.07 70.72 347.4 111.54 327.06 177.86Z" fill="#444053"/>
<path d="M272.41 329.37L270.03 328.53C272.13 322.6 274.41 316.58 276.79 310.65C297.51 258.98 315.14 210.98 326.45 174.09L328.52 173.09C317.19 209.98 299.87 259.88 279.13 311.59C276.76 317.49 274.5 323.47 272.41 329.37Z" fill="#444053"/>
<path d="M322.49 685.7C322.17 685.34 289.99 649.12 267.57 587.26C254.422 551.053 247.098 512.991 245.87 474.49C244.34 426.36 254.43 372.61 271.74 323.8L273.62 326C234.78 435.56 250.21 529.45 270.68 585.98C292.87 647.27 324.68 683.1 324.99 683.46L322.49 685.7Z" fill="#444053"/>
<path d="M724.29 79.74H312.54C307.128 79.74 302.74 84.1276 302.74 89.54V711.32C302.74 716.732 307.128 721.12 312.54 721.12H724.29C729.702 721.12 734.09 716.732 734.09 711.32V89.54C734.09 84.1276 729.702 79.74 724.29 79.74Z" fill="white"/>
<path d="M686.63 137.33H354.72C349.087 137.33 344.52 141.897 344.52 147.53V249.08C344.52 254.713 349.087 259.28 354.72 259.28H686.63C692.263 259.28 696.83 254.713 696.83 249.08V147.53C696.83 141.897 692.263 137.33 686.63 137.33Z" fill="#E6E8EC"/>
<path opacity="0.1" d="M415.03 313.48H365.47C359.511 313.48 354.68 318.311 354.68 324.27V381.73C354.68 387.689 359.511 392.52 365.47 392.52H415.03C420.989 392.52 425.82 387.689 425.82 381.73V324.27C425.82 318.311 420.989 313.48 415.03 313.48Z" fill="black"/>
<path opacity="0.1" d="M501.98 313.48H452.42C446.461 313.48 441.63 318.311 441.63 324.27V381.73C441.63 387.689 446.461 392.52 452.42 392.52H501.98C507.939 392.52 512.77 387.689 512.77 381.73V324.27C512.77 318.311 507.939 313.48 501.98 313.48Z" fill="black"/>
<path opacity="0.1" d="M588.93 313.48H539.37C533.411 313.48 528.58 318.311 528.58 324.27V381.73C528.58 387.689 533.411 392.52 539.37 392.52H588.93C594.889 392.52 599.72 387.689 599.72 381.73V324.27C599.72 318.311 594.889 313.48 588.93 313.48Z" fill="black"/>
<path opacity="0.1" d="M657.83 315.16H644.37C628.442 315.16 615.53 328.072 615.53 344V365.36C615.53 381.288 628.442 394.2 644.37 394.2H657.83C673.758 394.2 686.67 381.288 686.67 365.36V344C686.67 328.072 673.758 315.16 657.83 315.16Z" fill="black"/>
<path d="M675.88 313.48H626.32C620.361 313.48 615.53 318.311 615.53 324.27V381.73C615.53 387.689 620.361 392.52 626.32 392.52H675.88C681.839 392.52 686.67 387.689 686.67 381.73V324.27C686.67 318.311 681.839 313.48 675.88 313.48Z" fill="#C64C26"/>
<path opacity="0.1" d="M415.03 400.43H365.47C359.511 400.43 354.68 405.261 354.68 411.22V468.68C354.68 474.639 359.511 479.47 365.47 479.47H415.03C420.989 479.47 425.82 474.639 425.82 468.68V411.22C425.82 405.261 420.989 400.43 415.03 400.43Z" fill="black"/>
<path opacity="0.1" d="M501.98 400.43H452.42C446.461 400.43 441.63 405.261 441.63 411.22V468.68C441.63 474.639 446.461 479.47 452.42 479.47H501.98C507.939 479.47 512.77 474.639 512.77 468.68V411.22C512.77 405.261 507.939 400.43 501.98 400.43Z" fill="black"/>
<path opacity="0.1" d="M588.93 400.43H539.37C533.411 400.43 528.58 405.261 528.58 411.22V468.68C528.58 474.639 533.411 479.47 539.37 479.47H588.93C594.889 479.47 599.72 474.639 599.72 468.68V411.22C599.72 405.261 594.889 400.43 588.93 400.43Z" fill="black"/>
<path opacity="0.1" d="M415.03 496.41H365.47C359.511 496.41 354.68 501.241 354.68 507.2V564.66C354.68 570.619 359.511 575.45 365.47 575.45H415.03C420.989 575.45 425.82 570.619 425.82 564.66V507.2C425.82 501.241 420.989 496.41 415.03 496.41Z" fill="black"/>
<path opacity="0.1" d="M501.98 496.41H452.42C446.461 496.41 441.63 501.241 441.63 507.2V564.66C441.63 570.619 446.461 575.45 452.42 575.45H501.98C507.939 575.45 512.77 570.619 512.77 564.66V507.2C512.77 501.241 507.939 496.41 501.98 496.41Z" fill="black"/>
<path opacity="0.1" d="M588.93 496.41H539.37C533.411 496.41 528.58 501.241 528.58 507.2V564.66C528.58 570.619 533.411 575.45 539.37 575.45H588.93C594.889 575.45 599.72 570.619 599.72 564.66V507.2C599.72 501.241 594.889 496.41 588.93 496.41Z" fill="black"/>
<path opacity="0.1" d="M588.93 592.39H539.37C533.411 592.39 528.58 597.221 528.58 603.18V660.64C528.58 666.599 533.411 671.43 539.37 671.43H588.93C594.889 671.43 599.72 666.599 599.72 660.64V603.18C599.72 597.221 594.889 592.39 588.93 592.39Z" fill="black"/>
<path opacity="0.1" d="M657.83 402.11H644.37C628.442 402.11 615.53 415.022 615.53 430.95V452.31C615.53 468.238 628.442 481.15 644.37 481.15H657.83C673.758 481.15 686.67 468.238 686.67 452.31V430.95C686.67 415.022 673.758 402.11 657.83 402.11Z" fill="black"/>
<path d="M675.37 400.43H626.83C620.589 400.43 615.53 405.489 615.53 411.73V468.17C615.53 474.411 620.589 479.47 626.83 479.47H675.37C681.611 479.47 686.67 474.411 686.67 468.17V411.73C686.67 405.489 681.611 400.43 675.37 400.43Z" fill="#C64C26"/>
<path opacity="0.2" d="M675.37 400.43H626.83C620.589 400.43 615.53 405.489 615.53 411.73V468.17C615.53 474.411 620.589 479.47 626.83 479.47H675.37C681.611 479.47 686.67 474.411 686.67 468.17V411.73C686.67 405.489 681.611 400.43 675.37 400.43Z" fill="black"/>
<path opacity="0.1" d="M502.73 592.39H364.72C359.175 592.39 354.68 596.885 354.68 602.43V661.39C354.68 666.935 359.175 671.43 364.72 671.43H502.73C508.275 671.43 512.77 666.935 512.77 661.39V602.43C512.77 596.885 508.275 592.39 502.73 592.39Z" fill="black"/>
<path opacity="0.1" d="M675 496.41H620.41C613.97 496.41 608.75 501.63 608.75 508.07V659.78C608.75 666.22 613.97 671.44 620.41 671.44H675C681.44 671.44 686.66 666.22 686.66 659.78V508.07C686.66 501.63 681.44 496.41 675 496.41Z" fill="black"/>
<path d="M681.01 237.98H649.87V241.35H681.01V237.98Z" fill="#C64C26"/>
<path d="M635.42 237.98H604.28V241.35H635.42V237.98Z" fill="#C64C26"/>
<path d="M589.82 237.98H558.68V241.35H589.82V237.98Z" fill="#C64C26"/>
<path d="M544.23 237.98H513.09V241.35H544.23V237.98Z" fill="#C64C26"/>
</g>
<defs>
<clipPath id="clip0">
<rect width="1027.35" height="783.97" fill="white"/>
</clipPath>
</defs>
</svg>
