<svg width="541" height="723" viewBox="0 0 541 723" fill="none" xmlns="http://www.w3.org/2000/svg">
<path d="M98.9399 638.25C98.9399 638.25 119.94 634.89 132.54 649.74C132.54 649.74 123.3 657.02 103.42 646.94L98.9399 638.25Z" fill="#C64C26"/>
<path d="M96.6799 637.98C96.6799 637.98 83.2899 654.5 89.8599 672.83C89.8599 672.83 100.78 668.45 101.97 646.19L96.6799 637.98Z" fill="#C64C26"/>
<path d="M84.6799 610.81C84.6799 610.81 93.0799 595.41 126.68 616.97C126.68 616.97 122.2 627.33 107.36 626.49C92.5199 625.65 88.5799 618.98 84.6799 610.81Z" fill="#C64C26"/>
<path d="M82.4901 609.7C82.4901 609.7 65.0601 607.7 63.3701 647.61C63.3701 647.61 74.4201 649.9 82.2701 637.28C90.1201 624.66 86.8801 617.58 82.4901 609.7Z" fill="#C64C26"/>
<path d="M72.3401 577.88C72.3401 577.88 82.1401 550.72 117.7 570.04C117.7 570.04 109.58 594.96 75.9801 587.12L72.3401 577.88Z" fill="#C64C26"/>
<path d="M61.4099 537.28C61.4099 537.28 79.8999 509.83 112.66 535.28C112.66 535.28 101.18 561.04 64.2099 547.04L61.4099 537.28Z" fill="#C64C26"/>
<path d="M57.49 498.63C57.49 498.63 79.06 473.43 111.54 498.63C111.54 498.63 91.1 520.75 57.49 505.07V498.63Z" fill="#C64C26"/>
<path d="M54.13 461.11C54.13 461.11 75.98 434.79 107.06 459.71C107.06 459.71 82.42 482.95 54.13 467.27V461.11Z" fill="#C64C26"/>
<path d="M56.09 427.79C56.09 427.79 79.09 393.9 108.18 416.87C108.18 416.87 83.54 445.99 56.09 434.23V427.79Z" fill="#C64C26"/>
<path d="M61.4099 388.86C61.4099 388.86 85.7799 355.26 114.06 381.02C114.06 381.02 85.2199 410.15 61.4099 395.02V388.86Z" fill="#C64C26"/>
<path d="M69.54 354.07C69.54 354.07 98.38 322.5 123.54 335.07C123.54 335.07 93.48 368.6 68.28 362.44L69.54 354.07Z" fill="#C64C26"/>
<path d="M79.62 321.1C79.62 321.1 112.94 282.46 132.26 295.34C132.26 295.34 107.74 325.34 77.26 328.34L79.62 321.1Z" fill="#C64C26"/>
<path d="M94.17 282.85C94.17 282.85 123.3 251.27 144.58 259.11C144.58 259.11 119.66 291.87 90.26 292.71L94.17 282.85Z" fill="#C64C26"/>
<path d="M107.34 247.07C107.34 247.07 139.54 216.82 153.54 222.14C153.54 222.14 130.3 255.75 105.94 253.79L107.34 247.07Z" fill="#C64C26"/>
<path d="M120.22 213.98C120.22 213.98 147.94 177.86 163.06 180.66C163.06 180.66 146.26 212.86 120.22 217.66V213.98Z" fill="#C64C26"/>
<path d="M134.2 169.48C134.2 169.48 158.7 141.78 171.93 141.85C171.93 141.85 152.59 178.85 133.19 178.51L134.2 169.48Z" fill="#C64C26"/>
<path d="M142.48 139.82L166.14 82.13C166.14 82.13 167.33 134.28 139.47 150.52L142.48 139.82Z" fill="#C64C26"/>
<path d="M152.09 76.2C152.09 76.2 156.01 28.04 153.49 24.12C153.49 24.12 170.41 64.12 151.92 97.48L152.09 76.2Z" fill="#C64C26"/>
<path d="M71.42 577.23C71.42 577.23 46.88 562.02 30.99 599.23C30.99 599.23 52.83 613.72 74.3 586.72L71.42 577.23Z" fill="#C64C26"/>
<path d="M60.68 535.73C60.68 535.73 30.58 522 15.97 560.85C15.97 560.85 39.23 576.85 63.42 545.55L60.68 535.73Z" fill="#C64C26"/>
<path d="M56.09 500.98C56.09 500.98 34.53 475.78 2.08997 500.98C2.08997 500.98 22.53 523.1 56.09 507.42V500.98Z" fill="#C64C26"/>
<path d="M53.4 461.11C53.4 461.11 31.56 434.79 0.469971 459.71C0.469971 459.71 25.12 482.95 53.4 467.27V461.11Z" fill="#C64C26"/>
<path d="M56.09 428.75C56.09 428.75 40.77 390.75 7.46997 407.12C7.46997 407.12 25.47 440.77 54.74 435.04L56.09 428.75Z" fill="#C64C26"/>
<path d="M63.34 388.67C63.34 388.67 48.12 350.06 14.34 367.97C14.34 367.97 35.02 403.36 61.84 394.64L63.34 388.67Z" fill="#C64C26"/>
<path d="M72.78 354.27C72.78 354.27 66.78 311.94 38.78 308.15C38.78 308.15 44.71 352.79 69 361.9L72.78 354.27Z" fill="#C64C26"/>
<path d="M80.33 321.17C80.33 321.17 77.99 270.17 54.84 268.4C54.84 268.4 55.62 307.11 77.72 328.4L80.33 321.17Z" fill="#C64C26"/>
<path d="M96.5701 281.39C96.5701 281.39 89.6601 238.98 67.5701 233.79C67.5701 233.79 70.31 274.87 94.39 291.79L96.5701 281.39Z" fill="#C64C26"/>
<path d="M109.96 247.37C109.96 247.37 109.72 203.2 96.2299 196.7C96.2299 196.7 87.8499 236.7 106.05 253.01L109.96 247.37Z" fill="#C64C26"/>
<path d="M121.25 213.53C121.25 213.53 119.36 168.04 105.38 161.63C105.38 161.63 100.59 197.63 119.15 216.51L121.25 213.53Z" fill="#C64C26"/>
<path d="M136.15 173.1C136.15 173.1 136.06 136.1 126.09 127.43C126.09 127.43 116.16 167.96 130.94 180.55L136.15 173.1Z" fill="#C64C26"/>
<path d="M141.3 137.98L131.6 76.39C131.6 76.39 118.41 126.85 141.77 149.08L141.3 137.98Z" fill="#C64C26"/>
<path d="M143.2 76.79C143.2 76.79 118.28 35.39 118.79 30.79C118.79 30.79 121.44 74.18 152.79 95.79L143.2 76.79Z" fill="#C64C26"/>
<path d="M146.12 64.56C146.12 64.56 122.6 5.75998 111.96 0.97998C111.96 0.97998 145.56 18.06 148.08 62.86L146.12 64.56Z" fill="#C64C26"/>
<path d="M133.06 178.86L131.46 178.36C151.31 113.64 156.26 72.36 145.4 62.02L146.56 60.8C158.07 71.72 153.4 112.54 133.06 178.86Z" fill="#444053"/>
<path d="M78.41 330.37L76.03 329.53C78.13 323.6 80.41 317.58 82.79 311.65C103.51 259.98 121.14 211.98 132.45 175.09L134.52 174.09C123.19 210.98 105.87 260.88 85.13 312.59C82.76 318.49 80.5 324.47 78.41 330.37Z" fill="#444053"/>
<path d="M128.49 686.7C128.17 686.34 95.99 650.12 73.57 588.26C60.4221 552.053 53.0978 513.991 51.87 475.49C50.34 427.36 60.43 373.61 77.74 324.8L79.62 327C40.78 436.56 56.21 530.45 76.68 586.98C98.87 648.27 130.68 684.1 130.99 684.46L128.49 686.7Z" fill="#444053"/>
<path d="M530.29 80.74H118.54C113.128 80.74 108.74 85.1276 108.74 90.54V712.32C108.74 717.732 113.128 722.12 118.54 722.12H530.29C535.702 722.12 540.09 717.732 540.09 712.32V90.54C540.09 85.1276 535.702 80.74 530.29 80.74Z" fill="white"/>
<path d="M492.63 138.33H160.72C155.087 138.33 150.52 142.897 150.52 148.53V250.08C150.52 255.713 155.087 260.28 160.72 260.28H492.63C498.263 260.28 502.83 255.713 502.83 250.08V148.53C502.83 142.897 498.263 138.33 492.63 138.33Z" fill="#E6E8EC"/>
<path opacity="0.1" d="M221.03 314.48H171.47C165.511 314.48 160.68 319.311 160.68 325.27V382.73C160.68 388.689 165.511 393.52 171.47 393.52H221.03C226.989 393.52 231.82 388.689 231.82 382.73V325.27C231.82 319.311 226.989 314.48 221.03 314.48Z" fill="black"/>
<path opacity="0.1" d="M307.98 314.48H258.42C252.461 314.48 247.63 319.311 247.63 325.27V382.73C247.63 388.689 252.461 393.52 258.42 393.52H307.98C313.939 393.52 318.77 388.689 318.77 382.73V325.27C318.77 319.311 313.939 314.48 307.98 314.48Z" fill="black"/>
<path opacity="0.1" d="M394.93 314.48H345.37C339.411 314.48 334.58 319.311 334.58 325.27V382.73C334.58 388.689 339.411 393.52 345.37 393.52H394.93C400.889 393.52 405.72 388.689 405.72 382.73V325.27C405.72 319.311 400.889 314.48 394.93 314.48Z" fill="black"/>
<path opacity="0.1" d="M463.83 316.16H450.37C434.442 316.16 421.53 329.072 421.53 345V366.36C421.53 382.288 434.442 395.2 450.37 395.2H463.83C479.758 395.2 492.67 382.288 492.67 366.36V345C492.67 329.072 479.758 316.16 463.83 316.16Z" fill="black"/>
<path d="M481.88 314.48H432.32C426.361 314.48 421.53 319.311 421.53 325.27V382.73C421.53 388.689 426.361 393.52 432.32 393.52H481.88C487.839 393.52 492.67 388.689 492.67 382.73V325.27C492.67 319.311 487.839 314.48 481.88 314.48Z" fill="#C64C26"/>
<path opacity="0.1" d="M221.03 401.43H171.47C165.511 401.43 160.68 406.261 160.68 412.22V469.68C160.68 475.639 165.511 480.47 171.47 480.47H221.03C226.989 480.47 231.82 475.639 231.82 469.68V412.22C231.82 406.261 226.989 401.43 221.03 401.43Z" fill="black"/>
<path opacity="0.1" d="M307.98 401.43H258.42C252.461 401.43 247.63 406.261 247.63 412.22V469.68C247.63 475.639 252.461 480.47 258.42 480.47H307.98C313.939 480.47 318.77 475.639 318.77 469.68V412.22C318.77 406.261 313.939 401.43 307.98 401.43Z" fill="black"/>
<path opacity="0.1" d="M394.93 401.43H345.37C339.411 401.43 334.58 406.261 334.58 412.22V469.68C334.58 475.639 339.411 480.47 345.37 480.47H394.93C400.889 480.47 405.72 475.639 405.72 469.68V412.22C405.72 406.261 400.889 401.43 394.93 401.43Z" fill="black"/>
<path opacity="0.1" d="M221.03 497.41H171.47C165.511 497.41 160.68 502.241 160.68 508.2V565.66C160.68 571.619 165.511 576.45 171.47 576.45H221.03C226.989 576.45 231.82 571.619 231.82 565.66V508.2C231.82 502.241 226.989 497.41 221.03 497.41Z" fill="black"/>
<path opacity="0.1" d="M307.98 497.41H258.42C252.461 497.41 247.63 502.241 247.63 508.2V565.66C247.63 571.619 252.461 576.45 258.42 576.45H307.98C313.939 576.45 318.77 571.619 318.77 565.66V508.2C318.77 502.241 313.939 497.41 307.98 497.41Z" fill="black"/>
<path opacity="0.1" d="M394.93 497.41H345.37C339.411 497.41 334.58 502.241 334.58 508.2V565.66C334.58 571.619 339.411 576.45 345.37 576.45H394.93C400.889 576.45 405.72 571.619 405.72 565.66V508.2C405.72 502.241 400.889 497.41 394.93 497.41Z" fill="black"/>
<path opacity="0.1" d="M394.93 593.39H345.37C339.411 593.39 334.58 598.221 334.58 604.18V661.64C334.58 667.599 339.411 672.43 345.37 672.43H394.93C400.889 672.43 405.72 667.599 405.72 661.64V604.18C405.72 598.221 400.889 593.39 394.93 593.39Z" fill="black"/>
<path opacity="0.1" d="M463.83 403.11H450.37C434.442 403.11 421.53 416.022 421.53 431.95V453.31C421.53 469.238 434.442 482.15 450.37 482.15H463.83C479.758 482.15 492.67 469.238 492.67 453.31V431.95C492.67 416.022 479.758 403.11 463.83 403.11Z" fill="black"/>
<path d="M481.37 401.43H432.83C426.589 401.43 421.53 406.489 421.53 412.73V469.17C421.53 475.411 426.589 480.47 432.83 480.47H481.37C487.611 480.47 492.67 475.411 492.67 469.17V412.73C492.67 406.489 487.611 401.43 481.37 401.43Z" fill="#C64C26"/>
<path opacity="0.2" d="M481.37 401.43H432.83C426.589 401.43 421.53 406.489 421.53 412.73V469.17C421.53 475.411 426.589 480.47 432.83 480.47H481.37C487.611 480.47 492.67 475.411 492.67 469.17V412.73C492.67 406.489 487.611 401.43 481.37 401.43Z" fill="black"/>
<path opacity="0.1" d="M308.73 593.39H170.72C165.175 593.39 160.68 597.885 160.68 603.43V662.39C160.68 667.935 165.175 672.43 170.72 672.43H308.73C314.275 672.43 318.77 667.935 318.77 662.39V603.43C318.77 597.885 314.275 593.39 308.73 593.39Z" fill="black"/>
<path opacity="0.1" d="M481 497.41H426.41C419.97 497.41 414.75 502.63 414.75 509.07V660.78C414.75 667.22 419.97 672.44 426.41 672.44H481C487.44 672.44 492.66 667.22 492.66 660.78V509.07C492.66 502.63 487.44 497.41 481 497.41Z" fill="black"/>
<path d="M487.01 238.98H455.87V242.35H487.01V238.98Z" fill="#C64C26"/>
<path d="M441.42 238.98H410.28V242.35H441.42V238.98Z" fill="#C64C26"/>
<path d="M395.82 238.98H364.68V242.35H395.82V238.98Z" fill="#C64C26"/>
<path d="M350.23 238.98H319.09V242.35H350.23V238.98Z" fill="#C64C26"/>
</svg>
